<?xml version="1.0" encoding="iso-8859-1"?>
<!-- Generator: Adobe Illustrator 19.0.0, SVG Export Plug-In . SVG Version: 6.00 Build 0)  -->
<svg version="1.1" id="Capa_1" xmlns="http://www.w3.org/2000/svg" xmlns:xlink="http://www.w3.org/1999/xlink" x="0px" y="0px"
	 viewBox="0 0 512.001 512.001" style="enable-background:new 0 0 512.001 512.001;" xml:space="preserve">
<g>
	<path style="fill:#B76035;" d="M32.249,326.871c-18.278-16.251-31.109-38-32.162-60.105c-1.384-29.136,14.002-57.33,31.928-79.213
		c19.848-24.229,39.014-49.98,47.025-79.571c6.21-22.935,4.487-48.794-7.553-69.118c-2.406-4.061,1.909-8.767,6.107-6.61
		c15.069,7.739,29.593,16.325,41.875,27.492c17.469,15.884,30.048,38.056,27.917,60.759c-2.166,23.076-18.542,42.397-30.941,62.448
		c-12.397,20.049-20.927,46.08-7.578,65.588c7.506,10.967,20.465,15.714,31.175,22.717c21.21,13.868,26.361,30.65,13.018,52.239
		C122.363,373.17,69.369,359.872,32.249,326.871z"/>
	<path style="fill:#B76035;" d="M479.75,326.871c18.278-16.251,31.109-38,32.162-60.105c1.384-29.136-14.002-57.33-31.928-79.213
		c-19.848-24.229-39.014-49.98-47.025-79.571c-6.21-22.935-4.487-48.794,7.553-69.118c2.406-4.061-1.909-8.767-6.107-6.61
		c-15.069,7.739-29.593,16.325-41.875,27.492c-17.469,15.884-30.048,38.056-27.917,60.759c2.166,23.076,18.542,42.397,30.941,62.448
		c12.397,20.049,20.927,46.08,7.578,65.588c-7.506,10.967-20.465,15.714-31.175,22.717c-21.21,13.868-26.361,30.65-13.018,52.239
		C389.637,373.17,442.63,359.872,479.75,326.871z"/>
</g>
<g>
	<path style="fill:#A04C27;" d="M511.915,266.767c-1.052,22.109-13.89,43.857-32.163,60.109
		c-20.253,18.005-45.239,30.142-68.751,29.379c12.89-4.785,25.481-12.24,36.845-21.387c19.82-15.963,34.267-37.928,36.474-60.852
		c2.918-30.214-11.642-60.305-29.173-83.961c-19.397-26.193-38.021-53.932-44.847-85.095c-4.589-20.934-2.867-43.847,6.486-62.945
		c5.713-3.465,11.622-6.682,17.623-9.755c4.197-2.166,8.507,2.547,6.105,6.61c-12.044,20.315-13.766,46.177-7.559,69.112
		c8.013,29.596,27.183,55.345,47.033,79.568C497.911,209.432,513.296,237.635,511.915,266.767z"/>
	<path style="fill:#A04C27;" d="M0.087,266.767c1.052,22.109,13.89,43.857,32.163,60.109c20.254,18.005,45.24,30.142,68.751,29.379
		c-12.89-4.785-25.481-12.24-36.845-21.387c-19.82-15.963-34.267-37.928-36.474-60.852c-2.918-30.214,11.642-60.305,29.173-83.961
		c19.397-26.193,38.021-53.932,44.847-85.095c4.589-20.934,2.867-43.847-6.486-62.945c-5.713-3.465-11.622-6.682-17.623-9.755
		c-4.197-2.166-8.507,2.547-6.105,6.61c12.044,20.315,13.766,46.177,7.559,69.112c-8.013,29.596-27.183,55.345-47.033,79.568
		C14.091,209.432-1.294,237.635,0.087,266.767z"/>
</g>
<path style="fill:#3777D3;" d="M447.248,480.289H64.751c-2.848,0-5.156-2.308-5.156-5.156v-79.14c0-2.848,2.308-5.156,5.156-5.156
	h382.497c2.848,0,5.156,2.308,5.156,5.156v79.14C452.404,477.98,450.096,480.289,447.248,480.289z"/>
<path style="fill:#2468BA;" d="M447.248,480.289h-26.64v-89.452h26.64c2.848,0,5.156,2.308,5.156,5.156v79.14
	C452.404,477.98,450.096,480.289,447.248,480.289z"/>
<path style="fill:#FFDBA9;" d="M91.392,390.837c0-90.91,73.698-164.608,164.608-164.608s164.608,73.698,164.608,164.608H91.392z"/>
<path style="fill:#FFC473;" d="M420.611,390.842h-29.503c0-85.817-69.565-155.383-155.383-155.383
	c-22.264,0-43.435,4.682-62.584,13.117c24.337-14.21,52.643-22.346,82.858-22.346C346.911,226.23,420.611,299.93,420.611,390.842z"
	/>
<path style="fill:#3777D3;" d="M296.019,390.837h-80.038V227.27c0-12.978,10.521-23.499,23.498-23.499h33.041
	c12.978,0,23.499,10.521,23.499,23.499V390.837z"/>
<path style="fill:#2468BA;" d="M296.021,227.272v163.57h-24.986v-163.57c0-12.983-10.518-23.501-23.501-23.501h24.986
	C285.502,203.77,296.021,214.289,296.021,227.272z"/>
<g>
</g>
<g>
</g>
<g>
</g>
<g>
</g>
<g>
</g>
<g>
</g>
<g>
</g>
<g>
</g>
<g>
</g>
<g>
</g>
<g>
</g>
<g>
</g>
<g>
</g>
<g>
</g>
<g>
</g>
</svg>
